<?xml version="1.0" standalone="no"?>
<!DOCTYPE svg PUBLIC "-//W3C//DTD SVG 20010904//EN"
 "http://www.w3.org/TR/2001/REC-SVG-20010904/DTD/svg10.dtd">
<svg version="1.0" xmlns="http://www.w3.org/2000/svg"
 width="462.000000pt" height="600.000000pt" viewBox="0 0 462.000000 600.000000"
 preserveAspectRatio="xMidYMid meet">

<g transform="translate(0.000000,600.000000) scale(0.100000,-0.100000)"
fill="#FFFFFF" stroke="none">
<path d="M1958 5479 c-15 -8 -18 -24 -18 -89 0 -43 -4 -81 -9 -84 -5 -3 -41
-9 -82 -12 -50 -5 -67 -10 -54 -15 18 -7 17 -8 -6 -8 -14 -1 -34 -7 -44 -15
-11 -8 -25 -12 -31 -9 -7 2 -20 -7 -29 -21 -16 -23 -53 -27 -38 -3 3 6 1 7 -6
3 -9 -6 -9 -11 0 -22 7 -9 8 -14 1 -14 -6 0 -12 6 -15 13 -3 9 -9 9 -25 0 -19
-11 -21 -10 -16 5 5 14 4 14 -4 3 -7 -9 -7 -23 -1 -39 5 -14 7 -33 3 -44 -5
-16 -11 -18 -37 -12 -18 4 -55 6 -84 5 -42 -1 -54 2 -62 17 -6 11 -7 22 -4 26
3 3 3 6 -1 6 -3 0 -11 -11 -16 -24 -6 -18 -21 -27 -59 -36 -27 -6 -58 -9 -69
-6 -27 9 -49 -18 -32 -39 11 -14 9 -16 -21 -14 -55 3 -143 -12 -160 -27 -9 -8
-18 -11 -22 -8 -3 4 -14 -1 -23 -10 -11 -12 -26 -15 -49 -12 -31 5 -67 -16
-52 -30 6 -6 -73 -84 -85 -84 -5 0 -8 -9 -8 -20 0 -11 -4 -20 -9 -20 -5 0 -7
-10 -3 -22 4 -18 2 -20 -14 -15 -18 7 -18 6 -1 -7 18 -14 17 -15 -4 -21 -16
-6 -18 -9 -8 -16 11 -6 10 -9 -4 -15 -18 -7 -24 -34 -7 -34 6 0 10 5 10 11 0
5 5 7 11 3 8 -5 6 -10 -5 -16 -11 -6 -14 -17 -11 -36 4 -18 -2 -13 -16 18 -12
25 -23 48 -24 53 -2 4 -4 10 -5 15 -1 4 -2 10 -1 14 0 4 -6 5 -14 1 -13 -5
-13 -7 2 -20 17 -14 17 -14 -2 -8 -11 4 -36 11 -55 15 -19 4 -42 10 -50 13
-10 4 -25 -9 -45 -41 -31 -49 -75 -146 -75 -168 0 -7 -9 -32 -19 -57 -17 -40
-23 -45 -61 -50 -57 -7 -95 20 -104 73 -7 45 -18 51 -79 39 -64 -11 -104 -34
-121 -67 -23 -44 -40 -144 -32 -185 8 -45 32 -57 112 -57 64 0 83 14 109 85
l19 47 98 -4 c67 -3 104 -10 113 -19 11 -12 9 -37 -16 -159 -32 -163 -48 -261
-81 -500 -13 -99 -27 -169 -35 -175 -7 -5 -16 -38 -19 -72 l-7 -63 39 0 c21 0
71 5 109 10 473 62 1086 154 1134 171 35 12 44 31 75 174 36 161 37 165 20
165 -20 0 -18 18 3 22 18 3 40 92 128 528 25 124 52 257 60 295 8 39 19 97 26
130 6 33 19 100 30 148 10 49 19 90 19 92 0 2 -9 1 -20 -2 -29 -8 -25 16 6 27
14 6 57 13 95 16 38 4 71 10 74 13 2 4 -6 33 -17 66 -11 33 -21 92 -22 130 -2
72 -9 95 -27 95 -6 0 -7 -5 -3 -12 5 -8 2 -9 -10 -5 -10 4 -32 8 -49 8 l-32 2
35 7 35 7 -40 1 c-22 1 -48 -3 -57 -9z m122 -103 c0 -22 -4 -23 -57 -23 l-58
0 33 14 c26 11 37 11 48 2 11 -9 14 -7 14 10 0 11 5 21 10 21 6 0 10 -11 10
-24z m10 -46 c0 -5 -2 -10 -4 -10 -3 0 -8 5 -11 10 -3 6 -1 10 4 10 6 0 11 -4
11 -10z m0 -30 c0 -5 -2 -10 -4 -10 -3 0 -8 5 -11 10 -3 6 -1 10 4 10 6 0 11
-4 11 -10z m-355 -170 c-3 -5 -12 -10 -18 -10 -7 0 -6 4 3 10 19 12 23 12 15
0z m-390 -100 c-3 -5 -12 -10 -18 -10 -7 0 -6 4 3 10 19 12 23 12 15 0z m-398
-60 c-1 -12 -5 -16 -10 -11 -5 5 -6 14 -3 20 11 16 15 13 13 -9z m490 -346
c-3 -3 -12 -4 -19 -1 -8 3 -5 6 6 6 11 1 17 -2 13 -5z m-77 -24 c-25 -10 -44
-23 -42 -29 1 -6 -4 -11 -10 -12 -7 0 -2 -5 12 -10 23 -10 24 -11 7 -21 -18
-9 -18 -10 0 -24 17 -12 17 -13 1 -14 -10 0 -18 -3 -18 -7 0 -5 -4 -14 -9 -21
-6 -11 -19 -6 -57 21 -27 19 -69 43 -94 53 l-44 18 49 13 c70 19 217 52 235
52 8 0 -5 -8 -30 -19z m35 -20 c-3 -5 -12 -10 -18 -10 -7 0 -6 4 3 10 19 12
23 12 15 0z m-1188 -67 c3 -7 -3 -9 -16 -6 -12 3 -21 10 -21 15 0 13 32 6 37
-9z m1130 -48 c0 -8 -5 -15 -11 -15 -6 0 -5 -5 2 -12 10 -10 15 -10 20 -2 5 9
11 8 20 -2 7 -8 9 -14 5 -14 -10 0 16 -25 28 -26 5 -1 14 -2 20 -3 5 0 7 -7 3
-13 -15 -24 -11 -48 7 -48 10 0 20 -4 24 -10 3 -5 13 -6 21 -3 21 8 93 -28
100 -50 9 -28 0 -30 -29 -6 -21 16 -27 17 -27 6 0 -9 13 -21 29 -28 32 -14 44
-38 30 -60 -5 -8 -2 -21 9 -33 16 -18 16 -18 -5 -7 -25 13 -45 43 -41 63 2 7
-3 12 -10 10 -7 -1 -40 23 -73 55 -43 41 -58 62 -53 75 4 12 1 16 -8 13 -12
-5 -98 75 -98 90 0 4 30 35 34 35 1 0 3 -7 3 -15z m-1220 -137 c-3 -7 -5 -2
-5 12 0 14 2 19 5 13 2 -7 2 -19 0 -25z m743 -32 c-1 -6 -9 -1 -19 11 -13 16
-25 20 -41 16 -23 -6 -23 -6 -4 14 19 20 19 20 42 -5 12 -14 22 -30 22 -36z
m768 -212 c-4 -3 -12 5 -18 18 -12 22 -12 22 6 6 10 -10 15 -20 12 -24z
m-1141 -16 c-3 -8 -6 -5 -6 6 -1 11 2 17 5 13 3 -3 4 -12 1 -19z m1157 -14 c3
-8 2 -12 -4 -9 -6 3 -10 10 -10 16 0 14 7 11 14 -7z m37 -50 c-5 -46 -14 -51
-27 -13 l-12 34 -7 -43 c-5 -30 -11 -39 -16 -30 -7 10 -9 10 -9 1 0 -16 -34
-17 -59 -1 -14 9 -23 8 -42 -5 -13 -10 -18 -17 -12 -17 7 0 14 4 18 10 3 5 13
6 21 3 12 -4 8 -10 -16 -21 -23 -11 -28 -17 -18 -23 10 -7 10 -9 -2 -9 -9 0
-11 -3 -5 -8 6 -4 10 -20 10 -35 -1 -21 3 -26 15 -21 8 3 21 7 28 7 6 0 12 4
12 8 0 3 9 9 20 12 14 4 20 0 20 -11 0 -15 2 -15 10 -2 5 8 12 11 16 7 13 -13
-6 -22 -49 -23 -23 -1 -50 -5 -59 -9 -12 -5 -21 2 -33 22 l-16 28 5 -35 c4
-27 3 -31 -4 -18 -6 10 -12 44 -14 76 -2 49 1 61 16 71 10 6 16 16 13 21 -6
10 -60 8 -71 -3 -3 -3 -11 -4 -18 -1 -7 3 -18 -7 -24 -21 -15 -33 -15 -38 2
-32 9 4 14 -2 14 -19 0 -20 -3 -22 -15 -13 -19 16 -36 -1 -38 -41 -1 -24 3
-32 22 -36 13 -4 22 -9 19 -12 -3 -2 -19 1 -36 8 -27 11 -30 17 -25 39 4 14
12 32 18 39 6 8 12 20 13 28 6 38 30 75 47 70 9 -2 17 0 17 6 0 5 10 6 21 3
15 -5 19 -4 14 5 -4 7 -2 10 6 9 8 -2 40 1 73 5 45 6 61 5 67 -6 7 -10 9 -9 9
4 0 11 10 18 33 21 48 6 52 3 48 -29z m-1214 -76 c-3 -8 -6 -5 -6 6 -1 11 2
17 5 13 3 -3 4 -12 1 -19z m750 -5 c10 -13 8 -20 -12 -39 -14 -13 -25 -29 -25
-36 0 -11 -2 -10 -9 0 -10 16 -2 62 11 62 5 0 6 -4 3 -10 -3 -5 -1 -10 4 -10
6 0 11 9 11 21 0 11 -4 18 -9 15 -12 -8 -41 4 -41 16 0 15 53 0 67 -19z m223
-27 c0 -6 -5 -5 -11 1 -6 6 -19 9 -28 6 -12 -3 -11 -1 3 11 20 16 35 8 36 -18z
m187 28 c-3 -3 -12 -4 -19 -1 -8 3 -5 6 6 6 11 1 17 -2 13 -5z m3 -39 c-7 -9
-15 -13 -19 -10 -3 3 1 10 9 15 21 14 24 12 10 -5z m-1173 -27 c-3 -7 -5 -2
-5 12 0 14 2 19 5 13 2 -7 2 -19 0 -25z m515 -66 c-17 -51 -32 -68 -32 -36 0
16 41 96 46 91 2 -2 -4 -26 -14 -55z m179 18 c-13 -11 -31 -20 -40 -20 -9 0 0
8 19 19 46 24 50 24 21 1z m266 -6 c-3 -3 -12 -4 -19 -1 -8 3 -5 6 6 6 11 1
17 -2 13 -5z m-972 -81 c-10 -42 -18 -18 -9 29 6 32 9 37 12 19 2 -12 1 -34
-3 -48z m632 61 c-3 -3 -12 -4 -19 -1 -8 3 -5 6 6 6 11 1 17 -2 13 -5z"/>
<path d="M1372 4381 c16 -26 24 -26 32 -4 4 10 4 14 0 11 -4 -4 -15 -3 -26 3
-17 9 -18 8 -6 -10z"/>
<path d="M1474 4286 c24 -19 36 -20 36 -4 0 6 -3 8 -6 5 -4 -3 -16 -2 -28 4
-20 10 -20 10 -2 -5z"/>
<path d="M1566 4002 c-3 -6 -1 -14 5 -17 14 -9 20 -2 10 14 -6 8 -11 9 -15 3z"/>
<path d="M1540 3970 c34 -11 60 -11 35 0 -11 5 -29 8 -40 8 -16 0 -15 -2 5 -8z"/>
<path d="M832 5064 c-23 -16 -28 -39 -14 -62 7 -9 25 -5 80 19 40 18 70 34 67
37 -3 3 -27 5 -53 5 -45 -1 -45 -1 -12 7 l35 7 -40 2 c-23 0 -50 -6 -63 -15z"/>
<path d="M2278 4988 c-3 -20 -11 -24 -58 -29 -30 -3 -50 -6 -45 -7 6 -1 -5
-11 -24 -23 -18 -11 -35 -29 -38 -39 -3 -11 -9 -17 -14 -14 -5 3 -6 -2 -3 -10
3 -9 3 -24 -2 -33 -21 -48 -8 -83 32 -83 28 0 28 -4 13 -105 -25 -176 -40
-357 -46 -556 -6 -229 -4 -258 26 -286 14 -13 17 -27 14 -51 -5 -31 -8 -33
-32 -27 -14 4 -47 9 -73 12 l-48 5 -2 91 c-2 92 -2 92 -5 17 -5 -113 -5 -114
-70 -138 -32 -12 -67 -27 -77 -35 -18 -14 -50 -113 -40 -128 3 -5 33 -9 67
-10 34 -1 73 -5 87 -9 22 -7 -103 -13 -287 -15 -22 0 -39 -3 -37 -6 2 -4 80
-4 174 -1 l170 5 0 -343 c-1 -188 2 -345 5 -348 4 -4 10 336 10 623 l0 80 137
5 c91 3 141 9 150 18 7 7 14 43 16 81 4 61 2 70 -14 74 -14 3 -6 10 31 28 41
19 67 24 141 24 100 1 79 -8 245 97 26 16 63 33 82 38 31 6 189 -5 453 -34 46
-5 52 -4 57 14 7 25 27 26 27 1 0 -25 11 -28 134 -37 l106 -7 14 34 c7 19 13
52 12 74 -1 22 -3 78 -5 125 -2 72 -4 80 -13 55 -5 -16 -11 -75 -13 -130 -2
-55 -4 -103 -4 -107 -1 -5 -10 -8 -21 -8 -11 0 -19 5 -18 12 2 7 -7 13 -19 14
-12 1 -20 -2 -17 -7 2 -4 12 -5 22 -2 14 5 15 3 5 -7 -10 -11 -18 -11 -38 -2
-14 7 -34 12 -45 12 -16 0 -19 9 -22 53 -3 51 -4 52 -35 55 -32 3 -33 5 -32
45 1 23 3 34 6 25 5 -20 12 -22 33 -8 10 6 15 25 14 60 l-1 51 100 -3 99 -3
-6 44 c-3 24 -6 63 -6 86 0 31 -4 42 -16 42 -14 0 -15 -12 -12 -77 l3 -76 -65
-2 c-36 -1 -71 2 -79 7 -9 6 -16 32 -19 70 -2 34 -8 61 -13 61 -5 0 -9 -4 -9
-10 0 -5 -5 -10 -11 -10 -6 0 -9 7 -6 14 4 10 1 13 -9 9 -11 -4 -14 5 -14 40
0 48 12 66 33 49 18 -14 58 -22 51 -10 -4 6 12 9 42 8 73 -4 76 -3 69 21 -5
15 -4 19 4 15 6 -4 11 -20 11 -35 0 -15 7 -36 16 -47 14 -17 15 -11 9 75 -8
120 -23 157 -72 178 -21 9 -51 17 -68 19 -76 8 -120 16 -125 24 -3 5 -143 37
-310 70 -168 33 -323 69 -345 79 -22 11 -68 27 -102 36 -48 14 -63 22 -63 36
0 13 -12 22 -40 30 -85 26 -24 18 166 -21 387 -79 999 -212 1015 -221 27 -14
34 -71 89 -699 5 -63 13 -346 16 -629 7 -487 6 -514 -10 -508 -10 4 -52 8 -94
9 -70 1 -73 2 -32 8 29 5 -14 8 -125 9 -93 1 -192 1 -219 2 -120 1 -253 -59
-356 -161 -37 -36 -76 -78 -88 -93 l-21 -28 -388 1 c-213 1 -401 4 -418 6 -69
12 -254 4 -394 -17 -83 -12 -151 -26 -151 -31 0 -4 9 -8 20 -8 20 0 20 0 1
-37 -11 -21 -34 -53 -53 -70 l-34 -33 -164 -10 c-91 -5 -226 -10 -301 -10
-132 0 -377 15 -411 26 -9 2 -23 21 -31 41 l-14 37 -16 -31 c-9 -16 -32 -38
-51 -47 -37 -17 -76 -63 -76 -89 0 -8 -7 -17 -15 -21 -21 -8 -21 -282 0 -310
16 -20 10 -71 -10 -96 -32 -38 26 -208 85 -250 17 -12 60 -32 97 -44 l68 -23
3 -61 c4 -80 19 -90 129 -88 44 0 86 6 94 12 23 19 118 9 214 -24 50 -17 128
-41 174 -55 l84 -24 22 -64 c78 -232 226 -368 450 -414 131 -27 306 -5 419 52
65 32 202 171 240 242 l29 54 -92 -6 c-80 -6 -91 -5 -91 9 0 11 -6 15 -20 11
-25 -6 -27 8 -2 18 16 7 15 8 -3 15 -11 5 -15 9 -9 9 6 1 28 -6 47 -14 34 -14
37 -14 46 4 6 10 7 22 3 26 -4 4 3 2 16 -4 19 -10 27 -10 39 1 13 10 17 10 20
1 5 -15 73 -18 73 -3 0 6 7 10 15 10 13 0 18 -10 17 -30 0 -3 20 -5 44 -6 25
-1 42 2 37 5 -11 8 -13 41 -2 41 5 0 9 -4 9 -8 0 -4 16 -6 36 -4 25 3 35 1 30
-6 -4 -6 -14 -8 -23 -5 -11 5 -14 3 -8 -6 5 -9 19 -11 44 -6 20 3 52 7 71 8
32 2 35 0 43 -38 22 -106 65 -225 98 -277 19 -31 71 -95 114 -142 60 -66 94
-94 142 -118 60 -29 71 -31 176 -32 145 0 306 17 383 42 117 37 206 123 289
280 29 56 46 78 64 82 22 5 112 -5 221 -24 60 -11 62 -6 50 148 -10 128 -9
139 7 152 10 7 27 10 38 7 11 -4 49 -7 84 -7 56 -1 65 -3 67 -21 15 -111 38
-226 52 -268 18 -52 18 -51 124 -117 17 -10 18 34 18 849 l-1 860 -37 3 c-35
3 -37 4 -35 38 1 19 2 60 2 90 0 206 3 251 22 324 18 70 20 102 16 250 -3 97
-2 143 2 106 7 -62 8 -63 9 -17 1 30 6 46 12 42 7 -4 9 2 5 17 -8 34 -8 80 0
107 6 16 5 22 -2 18 -12 -8 -39 20 -29 30 3 3 6 1 6 -5 0 -6 7 -9 16 -5 13 5
13 7 2 14 -10 7 -11 12 0 29 6 11 12 30 11 42 -1 22 -1 22 -9 -2 -7 -22 -8
-20 -9 15 0 29 2 36 9 25 8 -12 10 -9 10 12 0 14 -6 29 -12 32 -10 5 -10 7 0
12 6 3 12 15 12 25 0 11 -4 17 -10 14 -5 -3 -10 1 -10 9 0 9 5 16 10 16 15 0
12 57 -4 63 -9 4 -13 19 -11 46 2 30 -2 41 -12 41 -12 0 -14 13 -11 60 1 33
-1 60 -5 60 -5 0 -2 7 7 15 21 21 26 19 26 -12 0 -16 5 -35 10 -43 6 -10 10
95 10 307 l0 322 -37 10 c-69 20 -97 13 -131 -31 -21 -27 -51 -117 -41 -124
10 -6 12 -156 3 -191 -4 -13 -14 -23 -23 -24 -9 -1 -5 -4 9 -8 l24 -7 -21 -21
c-17 -17 -20 -30 -17 -65 3 -36 12 -50 49 -85 32 -31 45 -50 45 -70 0 -16 3
-37 6 -49 4 -17 -1 -23 -28 -32 -29 -10 -29 -11 -4 -6 25 4 28 3 23 -16 -3
-12 1 -37 9 -56 16 -37 23 -43 20 -18 0 9 5 19 11 21 10 4 12 -35 10 -171 -1
-111 -6 -175 -12 -174 -5 2 -9 8 -7 13 1 6 -4 3 -11 -6 -11 -15 -18 3 -47 122
-19 76 -32 140 -29 143 2 2 18 6 34 8 l30 3 0 -58 c0 -35 4 -56 10 -54 6 2 9
26 7 57 -3 36 1 56 10 62 10 7 9 8 -4 4 -10 -3 -18 -2 -18 2 0 4 -14 8 -31 9
-40 3 -41 3 -41 55 l-1 44 -40 0 c-35 -1 -44 3 -64 33 -28 41 -32 123 -7 161
l16 25 -20 -22 c-11 -13 -29 -23 -41 -23 -11 0 -22 -4 -26 -9 -3 -5 -22 -7
-42 -4 -33 6 -36 4 -30 -16 3 -12 -1 -27 -8 -35 -8 -7 -11 -16 -8 -20 4 -3 -8
-6 -25 -6 -16 0 -39 -3 -49 -6 -15 -5 -16 -4 -3 6 12 9 3 10 -40 4 -30 -3 -63
-8 -73 -10 -11 -2 -45 -6 -78 -10 -68 -8 -65 -11 -73 91 -5 68 -37 355 -52
463 -5 42 -11 53 -28 57 -11 3 -96 23 -187 45 -211 50 -698 156 -989 214 -124
25 -235 48 -247 51 -17 4 -22 0 -25 -17z m62 -187 c0 -3 -7 -62 -14 -131 -8
-69 -18 -185 -22 -257 -3 -73 -11 -133 -16 -133 -5 0 -6 -5 -2 -11 4 -6 7
-103 8 -215 l1 -204 -55 0 c-42 0 -51 3 -40 11 11 8 8 9 -14 4 l-28 -6 4 60
c2 33 1 58 -4 55 -4 -3 -3 7 3 23 5 15 11 83 12 150 1 68 5 123 8 123 8 0 3
76 -12 213 -12 99 -8 180 13 272 l11 50 74 1 c40 1 73 -2 73 -5z m478 -92 c13
-5 35 -9 50 -9 15 0 76 -12 135 -26 95 -24 110 -30 118 -52 6 -14 8 -33 6 -41
-3 -11 -5 -10 -6 5 -1 24 -30 67 -31 45 0 -11 -3 -11 -15 -1 -8 7 -15 9 -15 6
0 -4 -10 -1 -22 5 -13 6 -20 8 -16 4 9 -9 -37 -35 -62 -35 -10 0 -23 -7 -31
-16 -8 -10 -27 -15 -53 -14 -56 3 -106 -19 -106 -45 0 -15 2 -17 9 -6 6 9 11
10 15 2 4 -6 -2 -25 -14 -41 -18 -25 -19 -34 -10 -45 18 -21 33 -7 26 24 -4
15 -3 21 2 14 4 -7 17 -11 29 -9 17 4 20 1 15 -17 -5 -20 -6 -20 -13 -1 -5 12
-8 14 -8 4 0 -8 3 -21 8 -28 6 -11 10 -11 19 0 8 10 38 13 111 11 55 -1 103 2
106 8 4 5 15 9 25 9 10 0 24 8 29 18 21 35 31 -11 31 -145 l0 -133 -52 4 c-29
3 -84 10 -122 16 -38 6 -71 9 -73 6 -5 -4 163 -34 217 -38 l35 -3 5 -75 c6
-83 -1 -205 -12 -215 -12 -13 -77 16 -84 37 -4 14 -8 17 -14 8 -6 -9 -12 -8
-28 6 -12 10 -19 21 -16 26 3 4 0 8 -5 8 -6 0 -11 -6 -11 -12 0 -8 -3 -9 -8
-3 -4 6 -34 11 -67 13 -33 1 -67 5 -75 9 -16 6 -37 10 -87 14 l-33 3 0 66 c0
36 3 89 7 119 l6 54 81 -5 c45 -3 68 -2 51 2 -16 4 -53 8 -82 9 l-52 1 6 103
c3 56 9 109 14 118 5 9 5 20 1 23 -4 4 -12 59 -17 122 l-10 114 35 -6 c19 -4
45 -11 58 -15z m279 -161 c-3 -7 -5 -2 -5 12 0 14 2 19 5 13 2 -7 2 -19 0 -25z
m43 -9 c0 -6 -4 -7 -10 -4 -5 3 -10 11 -10 16 0 6 5 7 10 4 6 -3 10 -11 10
-16z m357 -66 c-3 -10 -5 -2 -5 17 0 19 2 27 5 18 2 -10 2 -26 0 -35z m-707
-13 c0 -5 -4 -10 -10 -10 -5 0 -10 5 -10 10 0 6 5 10 10 10 6 0 10 -4 10 -10z
m431 -53 c2 -25 0 -50 -4 -53 -4 -4 -7 19 -7 51 0 69 8 70 11 2z m469 -18 c0
-5 -4 -9 -10 -9 -5 0 -10 7 -10 16 0 8 5 12 10 9 6 -3 10 -10 10 -16z m50 -5
c0 -8 -5 -12 -10 -9 -6 4 -8 11 -5 16 9 14 15 11 15 -7z m-1573 -211 c-3 -10
-5 -2 -5 17 0 19 2 27 5 18 2 -10 2 -26 0 -35z m2377 -32 c-7 -10 -24 13 -24
33 0 37 15 40 20 4 3 -18 5 -35 4 -37z m-1293 48 c19 -10 18 -29 -2 -29 -6 0
-7 5 -4 10 3 6 2 10 -3 10 -5 0 -10 -34 -10 -76 0 -42 -3 -79 -6 -82 -3 -3 -6
36 -6 86 0 51 3 92 6 92 3 0 14 -5 25 -11z m15 -59 c0 -11 -4 -20 -8 -20 -4 0
-8 9 -8 20 0 11 4 20 8 20 4 0 8 -9 8 -20z m51 -22 c-3 -8 -6 -5 -6 6 -1 11 2
17 5 13 3 -3 4 -12 1 -19z m1235 7 c-3 -5 -5 -28 -4 -50 1 -22 -1 -34 -5 -26
-4 10 -7 11 -13 1 -5 -8 -9 8 -11 36 -4 45 -2 49 18 49 11 0 18 -4 15 -10z
m-1294 -40 c1 -13 -3 -27 -8 -30 -11 -7 -14 38 -3 48 9 9 8 10 11 -18z m770 8
c-10 -2 -26 -2 -35 0 -10 3 -2 5 17 5 19 0 27 -2 18 -5z m-85 -10 c-7 -2 -19
-2 -25 0 -7 3 -2 5 12 5 14 0 19 -2 13 -5z m-65 -10 c-10 -2 -26 -2 -35 0 -10
3 -2 5 17 5 19 0 27 -2 18 -5z m636 -79 c3 -8 2 -12 -4 -9 -6 3 -10 10 -10 16
0 14 7 11 14 -7z m-244 -60 c0 -20 -4 -33 -10 -29 -11 7 -9 65 3 65 4 0 7 -16
7 -36z m-1044 -41 c-10 -10 -19 5 -10 18 6 11 8 11 12 0 2 -7 1 -15 -2 -18z
m1054 -54 c0 -5 -4 -9 -10 -9 -5 0 -10 7 -10 16 0 8 5 12 10 9 6 -3 10 -10 10
-16z m267 -11 c-3 -8 -6 -5 -6 6 -1 11 2 17 5 13 3 -3 4 -12 1 -19z m-2284 5
c-7 -2 -19 -2 -25 0 -7 3 -2 5 12 5 14 0 19 -2 13 -5z m2062 -183 c20 -80 40
-149 45 -154 5 -5 6 -14 4 -20 -4 -11 120 -518 132 -537 3 -5 0 -9 -5 -9 -6 0
-11 2 -11 4 0 2 -32 129 -70 283 -39 153 -87 341 -106 418 -20 77 -38 149 -41
160 -3 13 -2 17 5 10 5 -5 26 -75 47 -155z m262 93 c-3 -10 -5 -4 -5 12 0 17
2 24 5 18 2 -7 2 -21 0 -30z m0 -65 c-3 -7 -5 -2 -5 12 0 14 2 19 5 13 2 -7 2
-19 0 -25z m-627 -43 c10 -9 16 -23 13 -31 -3 -8 1 -14 10 -14 18 0 32 -18 22
-28 -3 -3 -10 0 -15 8 -8 13 -10 12 -10 -2 0 -16 11 -23 33 -19 4 0 7 -6 7
-15 0 -8 4 -13 10 -9 5 3 14 -14 20 -37 6 -24 15 -56 20 -73 33 -110 46 -160
80 -315 11 -52 23 -106 26 -120 3 -14 7 -33 7 -42 1 -13 7 -16 22 -12 18 6 19
5 3 -7 -16 -13 -16 -17 -4 -41 8 -16 13 -28 10 -28 -3 0 -2 -6 2 -12 6 -9 10
-5 15 12 l7 25 1 -25 c1 -15 -4 -31 -11 -38 -9 -9 -5 -12 18 -13 23 -1 24 -3
7 -6 -24 -5 -31 -27 -13 -38 6 -4 8 -10 5 -15 -7 -12 5 -40 17 -40 6 0 5 6 -2
15 -10 12 -9 16 4 21 9 3 16 12 16 19 0 21 15 26 42 16 23 -10 23 -10 -4 -10
-18 -1 -28 -6 -28 -16 0 -8 -4 -15 -10 -15 -6 0 -6 -9 0 -26 9 -23 8 -25 -7
-19 -10 4 -33 9 -50 12 -18 3 -33 10 -33 14 0 5 -6 9 -12 9 -25 0 -38 17 -47
61 -5 24 -23 105 -41 179 -17 74 -38 162 -45 195 -22 99 -85 375 -100 442 -8
34 -14 72 -14 85 2 20 2 20 6 -3 2 -15 13 -35 23 -44z m600 50 c0 -8 -4 -15
-10 -15 -5 0 -7 7 -4 15 4 8 8 15 10 15 2 0 4 -7 4 -15z m-263 -67 c-3 -8 -6
-5 -6 6 -1 11 2 17 5 13 3 -3 4 -12 1 -19z m-322 -543 c32 -132 61 -255 65
-273 5 -22 5 -32 -2 -30 -6 2 -12 15 -14 28 -1 14 -11 63 -23 110 -100 417
-161 687 -160 707 0 10 18 -54 39 -142 20 -88 63 -268 95 -400z m352 423 c-3
-8 -6 -5 -6 6 -1 11 2 17 5 13 3 -3 4 -12 1 -19z m186 -106 c-4 -9 -2 -13 4
-9 12 7 37 -68 28 -83 -7 -12 -25 -4 -25 11 0 6 5 7 10 4 6 -3 10 -1 10 4 0 6
-4 11 -10 11 -5 0 -10 7 -10 16 0 8 -4 13 -9 10 -14 -9 -21 20 -20 82 l0 57
14 -44 c7 -24 11 -50 8 -59z m-169 53 c5 -22 4 -26 -4 -15 -5 8 -10 24 -10 34
0 26 6 18 14 -19z m223 -37 c-3 -8 -6 -5 -6 6 -1 11 2 17 5 13 3 -3 4 -12 1
-19z m-214 -40 c-10 -21 -10 -21 -9 9 1 19 5 28 10 23 6 -6 5 -18 -1 -32z
m194 10 c-3 -8 -6 -5 -6 6 -1 11 2 17 5 13 3 -3 4 -12 1 -19z m-669 -413 c32
-128 34 -137 23 -131 -5 3 -12 25 -16 49 -4 23 -16 75 -26 114 -10 40 -18 99
-18 130 l2 58 7 -70 c4 -38 17 -106 28 -150z m362 -79 c0 -2 -7 -7 -16 -10 -8
-3 -12 -2 -9 4 6 10 25 14 25 6z m247 -158 c-3 -8 -6 -5 -6 6 -1 11 2 17 5 13
3 -3 4 -12 1 -19z m-340 -24 c-3 -3 -12 -4 -19 -1 -8 3 -5 6 6 6 11 1 17 -2
13 -5z m228 -3 c3 -5 1 -12 -5 -16 -5 -3 -10 1 -10 9 0 18 6 21 15 7z m-40
-51 c3 -5 1 -10 -4 -10 -6 0 -11 5 -11 10 0 6 2 10 4 10 3 0 8 -4 11 -10z m65
-1 c0 -4 -11 -9 -25 -11 -15 -3 -25 -1 -25 6 0 6 11 11 25 11 14 0 25 -3 25
-6z m-1740 -278 c0 -6 -5 -13 -11 -17 -6 -3 -9 -15 -6 -25 4 -15 0 -19 -18
-19 -35 0 -38 14 -10 44 24 26 45 34 45 17z m-12 -82 l27 -1 -30 -9 c-35 -10
-84 -1 -63 12 7 5 19 7 26 4 8 -3 26 -5 40 -6z m1482 -4 c0 -8 -2 -15 -4 -15
-2 0 -6 7 -10 15 -3 8 -1 15 4 15 6 0 10 -7 10 -15z m290 -28 c0 -29 -1 -30
-15 -11 -19 26 -20 55 0 48 9 -4 15 -19 15 -37z m-1912 26 c-10 -2 -26 -2 -35
0 -10 3 -2 5 17 5 19 0 27 -2 18 -5z m209 -9 c-3 -3 -12 -4 -19 -1 -8 3 -5 6
6 6 11 1 17 -2 13 -5z m-29 -13 c6 0 12 -10 12 -21 0 -18 -7 -20 -67 -20 -38
0 -168 -3 -290 -7 l-223 -6 0 26 c0 16 6 27 18 29 15 3 518 3 550 -1z m-943
-51 c4 -6 -9 -10 -32 -9 -30 0 -34 2 -18 9 27 12 43 12 50 0z m52 -22 c-3 -8
-6 -5 -6 6 -1 11 2 17 5 13 3 -3 4 -12 1 -19z m-188 -3 c7 3 8 0 5 -9 -5 -12
-9 -13 -25 -3 -10 6 -19 16 -19 21 0 4 7 3 15 -4 8 -6 19 -9 24 -5z m-34 -17
c6 -4 2 -8 -7 -8 -10 0 -18 7 -18 17 0 9 3 12 8 7 4 -5 12 -12 17 -16z m-43
-30 c-6 -6 -7 0 -4 19 5 21 7 23 10 9 2 -10 0 -22 -6 -28z m283 32 c-3 -5 -14
-10 -23 -9 -14 0 -13 2 3 9 27 11 27 11 20 0z m0 -30 c4 -6 -6 -7 -27 -3 -44
8 -48 13 -10 13 17 0 34 -4 37 -10z m-249 -29 c54 10 70 -19 19 -33 -32 -8
-45 3 -45 37 0 14 3 16 9 7 4 -7 12 -12 17 -11z m244 -3 c0 -5 0 -12 0 -17 0
-13 -27 -21 -45 -15 -28 11 -17 39 15 39 17 0 30 -3 30 -7z m-180 -69 c-20 -9
-27 -2 -12 13 7 7 13 21 13 33 1 13 4 10 8 -10 5 -22 3 -32 -9 -36z m-125 31
c-3 -5 -1 -11 5 -15 20 -13 9 -25 -22 -25 -25 0 -29 3 -18 10 12 8 13 10 1 10
-11 0 -10 5 5 19 18 18 40 19 29 1z m2073 3 c-10 -2 -26 -2 -35 0 -10 3 -2 5
17 5 19 0 27 -2 18 -5z m-2697 -13 l76 0 -1 -80 -1 -80 -63 0 c-62 0 -62 0
-56 25 5 19 2 25 -10 25 -9 0 -16 -5 -16 -10 0 -13 -90 -11 -107 3 -7 5 -18 7
-25 4 -8 -4 -7 -6 4 -6 11 -1 15 -6 12 -16 -9 -22 -34 -18 -34 5 0 11 -9 29
-20 40 -28 28 -25 55 8 80 24 20 35 21 92 16 36 -3 99 -6 141 -6z m2609 -9 c0
-5 -7 -11 -15 -15 -9 -3 -15 0 -15 9 0 8 7 15 15 15 8 0 15 -4 15 -9z m189
-19 c-5 -2 -16 1 -23 7 -7 6 -16 8 -19 4 -4 -3 1 -12 11 -19 17 -14 14 -14
-37 -5 -2 1 4 9 13 20 14 15 21 17 41 7 13 -6 20 -13 14 -14z m-2084 8 c-3 -5
-11 -10 -16 -10 -6 0 -7 5 -4 10 3 6 11 10 16 10 6 0 7 -4 4 -10z m1945 0 c0
-5 -8 -10 -17 -10 -15 0 -16 2 -3 10 19 12 20 12 20 0z m-115 -10 c-3 -5 -12
-10 -18 -10 -7 0 -6 4 3 10 19 12 23 12 15 0z m323 -45 c1 -5 -9 -10 -22 -10
-14 -1 -23 2 -20 6 2 4 -3 10 -12 13 -13 5 -14 9 -4 21 11 13 15 13 34 -3 12
-9 23 -21 24 -27z m-2170 28 c-10 -2 -26 -2 -35 0 -10 3 -2 5 17 5 19 0 27 -2
18 -5z m142 3 c0 -2 -9 -6 -20 -9 -11 -3 -18 -1 -14 4 5 9 34 13 34 5z m70
-20 c0 -2 -7 -6 -15 -10 -8 -3 -15 -1 -15 4 0 6 7 10 15 10 8 0 15 -2 15 -4z
m1610 -6 c0 -5 -2 -10 -4 -10 -3 0 -8 5 -11 10 -3 6 -1 10 4 10 6 0 11 -4 11
-10z m-1690 -40 c0 -15 -7 -20 -29 -20 -32 0 -50 26 -23 33 38 10 52 7 52 -13z
m85 10 c-3 -5 -16 -10 -29 -10 -12 0 -27 -5 -34 -12 -9 -9 -12 -7 -12 10 0 19
5 22 41 22 24 0 38 -4 34 -10z m-165 -4 c0 -3 -4 -8 -10 -11 -5 -3 -10 -1 -10
4 0 6 5 11 10 11 6 0 10 -2 10 -4z m-87 -22 c-4 -11 -8 -12 -13 -4 -6 9 -9 9
-13 -1 -4 -10 -6 -9 -6 4 -1 11 6 17 19 17 14 0 18 -5 13 -16z m1310 6 c-13
-5 -23 -13 -24 -17 0 -4 -2 -16 -4 -25 -5 -27 10 -30 31 -7 16 18 16 19 1 13
-12 -4 -17 -1 -17 10 0 24 46 21 53 -4 10 -38 -19 -51 -85 -41 -5 0 -8 14 -8
31 0 31 21 50 55 49 18 0 18 -1 -2 -9z m933 -10 c0 -12 -4 -16 -9 -11 -5 5 -6
14 -3 20 10 15 12 14 12 -9z m-3018 -17 c-10 -2 -26 -2 -35 0 -10 3 -2 5 17 5
19 0 27 -2 18 -5z m49 -9 c-3 -3 -12 -4 -19 -1 -8 3 -5 6 6 6 11 1 17 -2 13
-5z m3033 -55 c0 -6 -4 -7 -10 -4 -5 3 -10 11 -10 16 0 6 5 7 10 4 6 -3 10
-11 10 -16z m-1155 -29 c3 -6 -4 -10 -17 -10 -18 0 -20 2 -8 10 19 12 18 12
25 0z m867 -8 c10 -4 -13 -7 -50 -7 -81 -1 -130 -22 -187 -82 -50 -51 -82
-114 -106 -202 -9 -36 -18 -56 -18 -43 -1 31 36 137 65 188 31 53 94 110 148
135 41 18 115 24 148 11z m-1161 -22 c21 0 40 6 42 13 4 9 8 9 15 -2 6 -8 15
-10 23 -6 11 7 46 9 149 6 25 -1 30 -5 30 -26 0 -24 -3 -25 -62 -27 -35 0 -83
-2 -108 -4 -25 -1 -112 -5 -195 -9 -82 -4 -156 -8 -163 -11 -10 -3 -12 5 -10
29 3 27 7 32 27 29 14 -1 29 3 34 10 7 10 10 10 14 1 6 -15 43 -17 43 -3 0 6
5 10 11 10 6 0 9 -6 6 -14 -4 -10 0 -12 14 -9 10 3 19 9 19 15 0 5 8 4 19 -2
27 -14 31 -13 31 7 0 13 3 14 12 5 7 -7 29 -12 49 -12z m1250 -27 c13 -16 12
-17 -3 -4 -17 13 -22 21 -14 21 2 0 10 -8 17 -17z m-149 -39 c20 1 35 0 33 -3
-9 -9 31 -30 57 -31 15 0 30 -5 34 -12 4 -7 3 -8 -5 -4 -6 4 -19 2 -28 -6 -12
-9 -15 -9 -9 0 4 6 3 12 -3 12 -6 0 -8 -13 -5 -32 9 -52 12 -58 33 -58 21 0
31 18 31 58 l1 27 18 -22 c10 -12 21 -20 23 -17 3 2 13 -7 22 -20 12 -19 13
-24 2 -20 -16 6 -46 -21 -46 -41 0 -10 -10 -7 -36 10 -45 30 -67 31 -111 4
-35 -22 -83 -102 -83 -139 0 -27 -8 -25 -37 8 l-24 27 3 -24 c2 -13 -2 -26 -8
-28 -13 -4 -1 76 15 105 9 15 10 15 11 -4 0 -29 31 -40 47 -18 7 10 13 28 13
40 0 26 -25 50 -35 34 -3 -5 -11 -10 -16 -10 -6 0 -1 12 10 26 11 15 19 30 16
34 -2 3 2 7 10 7 8 0 12 -5 9 -11 -3 -6 3 -1 13 12 l18 22 0 -32 c0 -28 3 -33
25 -33 18 0 27 8 35 29 8 24 6 31 -14 47 -17 14 -19 19 -8 19 9 0 19 4 22 10
4 6 -2 7 -18 1 -13 -5 -30 -6 -38 -1 -10 7 -25 -1 -50 -26 -23 -22 -36 -29
-36 -20 0 8 4 13 9 10 4 -3 8 -1 8 5 0 5 -5 11 -11 13 -9 3 -9 10 0 26 8 15 8
22 1 22 -7 0 -6 5 2 14 11 11 18 12 38 1 14 -6 42 -11 62 -11z m83 -14 c3 -6
-1 -7 -9 -4 -18 7 -21 14 -7 14 6 0 13 -4 16 -10z m-104 -37 c13 -16 12 -17
-3 -4 -10 7 -18 15 -18 17 0 8 8 3 21 -13z m-97 -30 c-1 -28 -29 -93 -40 -93
-3 0 3 16 15 36 l21 35 -29 -4 c-17 -3 -35 -8 -40 -12 -6 -3 -11 -2 -11 3 0 6
14 15 31 21 17 6 33 20 36 31 7 28 18 18 17 -17z m1040 21 c22 -21 20 -44 -3
-44 -18 0 -35 35 -25 52 7 11 10 10 28 -8z m-2321 -115 c-5 -5 -6 11 -3 34 4
41 5 41 8 8 2 -18 0 -37 -5 -42z m2278 48 c-13 -13 -26 -3 -16 12 3 6 11 8 17
5 6 -4 6 -10 -1 -17z m-1053 -17 c-11 -18 -28 -27 -28 -16 0 6 30 36 36 36 2
0 -1 -9 -8 -20z m423 -57 c17 -59 16 -166 -1 -219 -13 -37 -14 -38 -20 -14 -7
29 -37 34 -53 9 -13 -21 -1 -69 18 -69 8 0 19 8 24 18 6 9 11 12 11 5 0 -17
-50 -74 -61 -68 -5 4 -6 -1 -3 -9 8 -21 -73 -66 -120 -66 -52 0 -112 35 -137
82 -7 13 -5 15 10 11 22 -5 30 5 33 40 l2 25 29 -24 c16 -13 39 -27 52 -30 38
-10 93 24 123 75 23 40 27 57 27 127 0 56 -5 87 -15 100 -14 19 -14 19 7 1 21
-18 22 -18 38 7 10 14 15 33 11 41 -3 9 -2 14 3 11 4 -3 14 -27 22 -53z m-457
31 c3 -8 2 -12 -4 -9 -6 3 -10 10 -10 16 0 14 7 11 14 -7z m1 -59 c0 -14 -3
-25 -7 -25 -4 0 -8 14 -8 32 0 36 13 30 15 -7z m39 13 c-4 -13 -7 -31 -6 -40
0 -10 -3 -18 -9 -18 -12 0 -11 10 2 49 12 35 24 43 13 9z m-309 2 c3 -5 1 -10
-4 -10 -6 0 -11 5 -11 10 0 6 2 10 4 10 3 0 8 -4 11 -10z m-928 -52 c-2 -13
-4 -5 -4 17 -1 22 1 32 4 23 2 -10 2 -28 0 -40z m1176 -33 c-20 -27 -32 -32
-29 -12 3 21 17 37 32 37 12 0 12 -4 -3 -25z m17 -20 c0 -8 -4 -15 -10 -15 -5
0 -10 7 -10 15 0 8 5 15 10 15 6 0 10 -7 10 -15z m155 -114 c3 -5 -4 -7 -15
-4 -15 4 -23 -2 -34 -27 l-13 -32 -12 45 c-15 62 -15 82 2 69 15 -13 30 -4 42
23 7 17 9 13 16 -23 4 -23 10 -46 14 -51z m-248 57 c-3 -8 -6 -5 -6 6 -1 11 2
17 5 13 3 -3 4 -12 1 -19z m-1096 -83 c2 -16 7 -36 13 -43 6 -9 4 -11 -8 -6
-11 4 -16 18 -16 47 0 46 6 47 11 2z m259 15 c13 -8 13 -10 -2 -10 -9 0 -20 5
-23 10 -8 13 5 13 25 0z m94 -5 c-4 -8 -12 -15 -20 -15 -17 0 -18 17 -1 23 22
9 27 7 21 -8z m-237 -20 c0 -7 -8 -10 -19 -7 -20 5 -17 19 5 19 7 0 14 -6 14
-12z m921 -240 c-3 -3 -9 2 -12 12 -6 14 -5 15 5 6 7 -7 10 -15 7 -18z m319
-21 c-3 -3 -12 -4 -19 -1 -8 3 -5 6 6 6 11 1 17 -2 13 -5z"/>
<path d="M2230 4030 c0 -5 5 -10 11 -10 5 0 7 5 4 10 -3 6 -8 10 -11 10 -2 0
-4 -4 -4 -10z"/>
<path d="M2171 3914 c0 -11 3 -14 6 -6 3 7 2 16 -1 19 -3 4 -6 -2 -5 -13z"/>
<path d="M2245 3880 c3 -5 11 -10 16 -10 6 0 7 5 4 10 -3 6 -11 10 -16 10 -6
0 -7 -4 -4 -10z"/>
<path d="M3062 3973 c-9 -3 -7 -10 9 -24 24 -20 39 -24 39 -10 0 5 -9 11 -21
14 -12 3 -18 10 -14 16 7 12 6 12 -13 4z"/>
<path d="M935 2020 c3 -5 8 -10 11 -10 2 0 4 5 4 10 0 6 -5 10 -11 10 -5 0 -7
-4 -4 -10z"/>
<path d="M863 1923 c-27 -10 -11 -23 28 -23 22 0 38 4 35 9 -4 5 0 12 6 14 9
4 10 6 1 6 -6 1 -15 -3 -18 -9 -3 -5 -13 -10 -21 -10 -8 0 -12 5 -9 10 7 11
-2 12 -22 3z"/>
<path d="M3710 1985 c33 -19 49 -19 24 0 -10 8 -26 14 -34 14 -9 0 -4 -6 10
-14z"/>
<path d="M3651 1624 c0 -11 3 -14 6 -6 3 7 2 16 -1 19 -3 4 -6 -2 -5 -13z"/>
<path d="M3716 1445 c-9 -9 -16 -25 -16 -35 0 -48 30 -67 50 -31 24 46 -2 97
-34 66z"/>
<path d="M3591 1188 c-16 -41 21 -77 46 -45 6 6 13 23 16 37 6 23 3 26 -24 28
-23 2 -31 -3 -38 -20z"/>
<path d="M3492 1188 c-17 -17 -15 -53 3 -68 23 -19 47 6 43 44 -3 33 -25 45
-46 24z"/>
<path d="M634 4855 c-9 -22 1 -29 15 -11 8 10 9 16 1 21 -5 3 -13 -1 -16 -10z"/>
<path d="M2770 4801 c0 -11 31 -24 39 -16 3 3 -1 10 -9 15 -19 12 -30 12 -30
1z"/>
<path d="M2061 4704 c0 -11 3 -14 6 -6 3 7 2 16 -1 19 -3 4 -6 -2 -5 -13z"/>
<path d="M2041 4574 c0 -11 3 -14 6 -6 3 7 2 16 -1 19 -3 4 -6 -2 -5 -13z"/>
<path d="M4371 4464 c0 -11 3 -14 6 -6 3 7 2 16 -1 19 -3 4 -6 -2 -5 -13z"/>
<path d="M4348 4357 c-3 -19 -2 -25 4 -19 6 6 8 18 6 28 -3 14 -5 12 -10 -9z"/>
<path d="M2012 4345 c0 -16 2 -22 5 -12 2 9 2 23 0 30 -3 6 -5 -1 -5 -18z"/>
<path d="M3310 4362 c0 -13 23 -32 37 -32 11 0 11 5 3 20 -10 19 -40 28 -40
12z"/>
<path d="M2002 4240 c0 -14 2 -19 5 -12 2 6 2 18 0 25 -3 6 -5 1 -5 -13z"/>
<path d="M4370 4203 c8 -3 22 -11 30 -17 13 -10 13 -9 1 7 -7 9 -21 17 -30 16
-13 0 -14 -1 -1 -6z"/>
<path d="M1992 4150 c0 -19 2 -27 5 -17 2 9 2 25 0 35 -3 9 -5 1 -5 -18z"/>
<path d="M4355 4130 c3 -5 8 -10 11 -10 2 0 4 5 4 10 0 6 -5 10 -11 10 -5 0
-7 -4 -4 -10z"/>
<path d="M1983 4025 c0 -33 2 -45 4 -27 2 18 2 45 0 60 -2 15 -4 0 -4 -33z"/>
<path d="M3396 3914 c-4 -11 -1 -14 11 -12 9 2 18 9 21 16 6 18 -25 15 -32 -4z"/>
<path d="M2310 3312 c0 -4 18 -6 40 -4 22 2 40 6 40 8 0 2 -18 4 -40 4 -22 0
-40 -3 -40 -8z"/>
<path d="M2472 3274 c2 -16 7 -19 29 -16 15 2 30 11 33 18 6 17 -24 16 -36 -1
-5 -6 -12 -4 -18 5 -7 12 -9 11 -8 -6z"/>
<path d="M2892 3265 c0 -16 2 -22 5 -12 2 9 2 23 0 30 -3 6 -5 -1 -5 -18z"/>
<path d="M3151 3271 c-28 -18 -37 -189 -11 -231 4 -7 43 -15 94 -19 l86 -7 0
127 0 126 -46 7 c-63 8 -106 7 -123 -3z"/>
<path d="M2540 3260 c0 -5 5 -10 10 -10 6 0 10 5 10 10 0 6 -4 10 -10 10 -5 0
-10 -4 -10 -10z"/>
<path d="M2776 3255 c-10 -10 -28 -35 -41 -55 -34 -55 -71 -67 -214 -75 -69
-3 -128 -8 -133 -11 -4 -3 -8 0 -8 5 0 6 -7 11 -15 11 -8 0 -15 -4 -15 -10 0
-5 -8 -10 -17 -10 -15 0 -16 2 -3 10 13 8 12 10 -2 10 -20 0 -25 -29 -5 -34
36 -12 77 -15 72 -6 -3 6 -1 10 4 10 6 0 11 -4 11 -10 0 -6 27 -10 60 -10 46
0 58 -3 54 -14 -4 -10 7 -15 38 -20 53 -8 77 -21 63 -35 -13 -13 -63 -22 -67
-12 -7 16 -109 51 -132 45 -15 -3 -42 2 -70 15 l-46 20 0 -93 0 -93 143 -6
c78 -4 212 -7 297 -7 l155 0 -2 151 -2 151 -38 39 c-21 21 -43 37 -50 34 -6
-2 -13 1 -15 7 -2 6 -11 3 -22 -7z m-100 -244 c5 -4 24 -13 42 -19 24 -8 32
-8 32 1 1 7 10 1 20 -12 12 -14 26 -21 35 -17 9 3 18 -1 22 -9 4 -12 9 -13 19
-4 11 9 14 8 14 -5 0 -19 -37 -20 -110 -2 -47 11 -100 46 -100 65 0 13 12 14
26 2z m-97 -37 c10 -10 -11 -11 -131 -6 -71 2 -128 8 -128 13 0 9 250 2 259
-7z m306 6 c3 -5 -3 -10 -15 -10 -12 0 -18 5 -15 10 3 6 10 10 15 10 5 0 12
-4 15 -10z m-535 -32 c0 -9 3 -9 12 0 18 18 23 15 26 -12 1 -21 -2 -25 -29
-24 -33 1 -44 11 -35 33 7 18 26 20 26 3z m112 -12 c10 -14 0 -26 -22 -26 -18
0 -34 25 -25 40 6 11 37 1 47 -14z m85 -6 c1 -16 -4 -20 -33 -20 -21 0 -33 4
-29 10 4 6 12 8 18 4 7 -3 3 2 -7 10 -19 15 -18 16 15 16 28 0 35 -4 36 -20z
m76 6 c8 -19 -1 -26 -33 -26 -19 0 -26 5 -27 20 -1 16 4 20 27 20 15 0 30 -6
33 -14z m67 -7 c0 -22 -35 -27 -43 -5 -7 18 -3 21 23 23 14 1 20 -4 20 -18z"/>
<path d="M2324 3236 c-13 -34 0 -51 41 -51 22 0 45 -4 52 -8 7 -4 39 -6 72 -5
59 2 60 3 54 28 -8 34 -12 40 -28 40 -7 0 -16 -11 -19 -25 -4 -14 -14 -25 -23
-25 -13 0 -14 3 -5 12 20 20 14 38 -14 38 -23 0 -25 -2 -14 -15 7 -9 10 -18 7
-21 -9 -9 -27 5 -27 22 0 25 -37 16 -44 -12 -7 -27 -29 -28 -34 -1 -2 10 3 17
13 17 9 0 13 5 10 10 -9 15 -35 12 -41 -4z"/>
<path d="M1115 3229 c-252 -20 -523 -53 -660 -80 l-50 -9 3 -53 c4 -74 30
-338 43 -429 9 -64 15 -80 35 -93 13 -8 24 -22 24 -29 0 -8 7 -17 16 -20 45
-17 685 -1 736 19 22 9 32 37 67 185 68 288 104 471 95 480 -6 6 -101 2 -249
-10 -276 -23 -260 -22 -252 -14 3 4 73 13 154 20 257 23 345 33 351 38 8 8
-182 5 -313 -5z m-206 -62 c-2 -1 -11 -8 -20 -15 -13 -10 -19 -9 -29 3 -11 13
-8 15 20 15 19 0 31 -1 29 -3z m-442 -113 c-3 -3 -12 -4 -19 -1 -8 3 -5 6 6 6
11 1 17 -2 13 -5z m50 -10 c-3 -3 -12 -4 -19 -1 -8 3 -5 6 6 6 11 1 17 -2 13
-5z m56 -11 c-7 -2 -21 -2 -30 0 -10 3 -4 5 12 5 17 0 24 -2 18 -5z m257 3 c0
-2 -11 -6 -25 -8 -13 -3 -22 -1 -19 3 5 9 44 13 44 5z m39 -235 c7 -23 15 -50
17 -60 5 -14 4 -14 -4 -1 -13 20 -44 127 -34 115 5 -6 14 -30 21 -54z m114 18
c10 -19 12 -25 5 -15 -7 11 -21 28 -32 39 -11 12 -13 18 -5 15 8 -3 22 -20 32
-39z m-304 -19 c0 -9 -4 -8 -9 5 -5 11 -9 27 -9 35 0 9 4 8 9 -5 5 -11 9 -27
9 -35z m68 -27 c-2 -16 -4 -3 -4 27 0 30 2 43 4 28 2 -16 2 -40 0 -55z"/>
<path d="M1626 3188 c-19 -52 -126 -481 -121 -486 2 -2 17 9 35 25 30 27 32
35 61 208 16 99 33 204 39 234 12 68 7 75 -14 19z"/>
<path d="M2554 3214 c3 -9 6 -22 6 -29 0 -9 14 -13 48 -13 34 0 41 3 27 8
l-20 9 20 1 c11 1 15 4 8 6 -7 3 -9 12 -6 20 3 9 -2 14 -16 14 -16 0 -21 -6
-21 -25 0 -18 -4 -23 -16 -18 -9 3 -14 13 -11 24 3 12 0 19 -10 19 -10 0 -13
-6 -9 -16z"/>
<path d="M2650 3220 c0 -5 5 -10 10 -10 6 0 10 -11 10 -25 0 -14 5 -25 10 -25
6 0 10 11 10 25 0 14 5 25 11 25 5 0 7 5 4 10 -3 6 -17 10 -31 10 -13 0 -24
-4 -24 -10z"/>
<path d="M283 3125 c-3 -9 -3 -109 -1 -223 4 -211 5 -213 48 -282 5 -8 12 -32
15 -52 5 -30 10 -38 27 -38 19 0 20 4 14 53 -9 70 -33 338 -41 460 -7 94 -8
97 -31 97 -14 0 -27 -7 -31 -15z"/>
<path d="M3318 2863 c7 -3 16 -2 19 1 4 3 -2 6 -13 5 -11 0 -14 -3 -6 -6z"/>
<path d="M1948 2675 c2 -14 6 -25 8 -25 2 0 4 11 4 25 0 14 -4 25 -9 25 -4 0
-6 -11 -3 -25z"/>
<path d="M1952 2620 c0 -14 2 -19 5 -12 2 6 2 18 0 25 -3 6 -5 1 -5 -13z"/>
<path d="M2249 1241 c12 -8 108 -15 100 -7 -2 2 -29 6 -58 9 -30 3 -49 2 -42
-2z"/>
<path d="M2368 1233 c6 -2 18 -2 25 0 6 3 1 5 -13 5 -14 0 -19 -2 -12 -5z"/>
</g>
</svg>
